<svg xmlns="http://www.w3.org/2000/svg" viewBox="0 0 16 16">
<rect height="16" width="16" fill="#333" stroke="#fff" stroke-width="1" />
<path fill="#fff" d="M 6.017956,12.240332 Q 5.8107737,12.212708 5.6726521,12.116023 5.5345306,12.03315 5.4654698,11.908841 l -0.041437,-0.08287 q -0.027624,-0.06906 -0.055249,-0.138122 -0.027624,-0.08287 -0.027624,-0.151933 l 0,-6.201658 q -0.1243094,0.041437 -0.2071823,0.082873 -0.069061,0.027624 -0.2071823,0.027624 -0.262431,0 -0.4281768,-0.1519337 -0.1519337,-0.1519337 -0.1519337,-0.359116 0,-0.3038674 0.3453038,-0.5248619 Q 5.0511052,4.1878462 5.5345306,4.0497247 6.017956,3.897791 6.5428179,3.8287302 q 0.538674,-0.069061 0.8839779,-0.069061 1.0082873,0 1.7955801,0.3314917 0.7872931,0.3314917 1.3259671,0.8977901 0.538674,0.5524862 0.814917,1.2983425 0.290055,0.7458564 0.290055,1.5607735 0,0.8287293 -0.303867,1.6298343 Q 11.04558,10.265194 10.424033,10.859117 9.9958565,11.273482 9.4571825,11.5221 8.9323206,11.756907 8.3522101,11.908841 7.7720996,12.046962 7.178177,12.116023 6.5842543,12.185084 6.017956,12.240332 Z M 7.4129836,4.8922661 q -0.2348066,0 -0.4696133,0.027624 -0.2348066,0.027624 -0.4696132,0.069061 l 0,6.0773478 q 0.4005525,-0.04144 0.8425414,-0.09669 0.4558011,-0.05525 0.8839779,-0.165746 0.4281768,-0.110497 0.801105,-0.290055 0.3729282,-0.179558 0.621547,-0.455801 0.4419886,-0.4834255 0.6629836,-1.0911603 0.234806,-0.6077348 0.234806,-1.2430939 0,-0.5524862 -0.207182,-1.0635359 Q 10.120166,6.1491722 9.7196134,5.7624318 9.3328731,5.3618794 8.7527626,5.1270727 8.1726521,4.8922661 7.4129836,4.8922661 Z" />
</svg>
