<svg viewBox="0 0 16 16" xmlns="http://www.w3.org/2000/svg">
<rect width="16" height="16" fill="#333" />
<path fill="#fff" d="M 4.8287293,14.784531 Q 4.4972376,14.740332 4.2762431,14.585636 4.0552486,14.453039 3.9447514,14.254144 L 3.8784531,14.121547 Q 3.8342542,14.01105 3.7900553,13.900553 3.7458564,13.767956 3.7458564,13.657459 l 0,-9.9226521 q -0.198895,0.066298 -0.3314917,0.1325967 -0.1104973,0.044199 -0.3314917,0.044199 -0.4198896,0 -0.6850829,-0.2430939 Q 2.1546962,3.4254147 2.1546962,3.093923 q 0,-0.4861879 0.5524861,-0.839779 Q 3.281768,1.9005528 4.0552486,1.6795583 4.8287293,1.4364644 5.6685083,1.3259672 6.5303868,1.2154699 7.082873,1.2154699 q 1.6132596,0 2.8729281,0.5303868 1.2596689,0.5303867 2.1215469,1.436464 0.861879,0.8839779 1.303867,2.0773481 0.464089,1.1933702 0.464089,2.4972376 0,1.3259668 -0.486188,2.6077346 -0.486188,1.259669 -1.480663,2.209945 -0.685083,0.662983 -1.546961,1.060773 -0.8397793,0.375691 -1.7679561,0.618785 -0.9281768,0.220994 -1.878453,0.331492 -0.9502762,0.110497 -1.8563536,0.198895 z M 7.0607735,3.0276246 q -0.3756906,0 -0.7513812,0.044199 -0.3756906,0.044199 -0.7513812,0.1104972 l 0,9.7237573 q 0.640884,-0.0663 1.3480663,-0.154696 0.7292817,-0.0884 1.4143646,-0.265194 0.6850829,-0.176795 1.281768,-0.464088 0.596685,-0.287293 0.994475,-0.729282 0.707182,-0.773481 1.060774,-1.7458564 0.37569,-0.9723757 0.37569,-1.9889502 0,-0.8839779 -0.331492,-1.7016575 Q 11.392265,5.0386743 10.751381,4.4198898 10.132597,3.7790058 9.2044199,3.4033152 8.2762431,3.0276246 7.0607735,3.0276246 Z" />
</svg>
